<svg xmlns="http://www.w3.org/2000/svg" xmlns:xlink="http://www.w3.org/1999/xlink" width="200" zoomAndPan="magnify" viewBox="0 0 150 60" height="80" preserveAspectRatio="xMidYMid meet" version="1.0"><path stroke-linecap="butt" transform="matrix(-0.00383783, 0.329205, 0.422066, 0.00299773, -12.303073, 92.094212)" fill="none" stroke-linejoin="miter" d="M -241.705912 99.06737 C -241.363877 107.113139 -238.368799 116.997027 -233.185776 123.76334 C -231.67284 125.711407 -229.317594 127.676389 -229.337296 128.536931 C -229.454478 132.284171 -235.791058 124.498566 -236.506378 123.566554 C -249.210244 107.458271 -248.949061 82.684813 -242.591728 67.342177 C -239.64867 59.483615 -234.014328 50.566681 -225.395625 47.498326 C -219.669232 45.412474 -213.086086 45.66669 -207.050167 47.378233 C -201.014164 49.080521 -195.513944 52.286515 -192.024001 56.038788 C -188.499306 59.883929 -187.339245 65.401246 -191.09945 66.570214 C -197.727476 68.638613 -199.781485 60.956735 -209.929301 57.338278 C -216.729769 54.888632 -222.296696 56.40212 -226.594032 59.222862 C -230.903232 62.043497 -233.990974 66.244989 -235.667135 69.191371 C -240.319554 77.126941 -242.414775 87.001563 -241.705912 99.06737 Z M -241.705912 99.06737 " stroke="#ffffff" stroke-width="6.93" stroke-opacity="1" stroke-miterlimit="2.613"/><path fill="#1ebed6" d="M 30.4375 12.820312 C 33.832031 12.957031 37.992188 13.972656 40.828125 15.699219 C 41.644531 16.203125 42.464844 16.984375 42.828125 16.980469 C 44.410156 16.953125 41.148438 14.84375 40.757812 14.601562 C 34.007812 10.375 23.550781 10.386719 17.050781 12.433594 C 13.722656 13.378906 9.9375 15.207031 8.609375 18.035156 C 7.707031 19.914062 7.789062 22.082031 8.488281 24.074219 C 9.183594 26.066406 10.515625 27.886719 12.085938 29.046875 C 13.695312 30.214844 16.019531 30.617188 16.527344 29.382812 C 17.425781 27.207031 14.191406 26.507812 12.703125 23.15625 C 11.695312 20.910156 12.355469 19.082031 13.5625 17.675781 C 14.769531 16.265625 16.554688 15.261719 17.804688 14.71875 C 21.171875 13.210938 25.347656 12.550781 30.4375 12.820312 " fill-opacity="1" fill-rule="evenodd"/><path stroke-linecap="butt" transform="matrix(-0.00383783, 0.329205, 0.422066, 0.00299773, -12.303073, 92.094212)" fill="none" stroke-linejoin="miter" d="M -226.444536 36.290149 C -221.840438 36.267228 -217.236592 36.27207 -212.644696 36.286059 C -208.040935 36.300156 -203.437089 36.304998 -198.833328 36.319095 C -197.852602 36.772256 -194.194496 37.694006 -192.727653 38.188608 C -190.704518 38.836349 -188.730948 39.715017 -186.887047 40.499954 C -175.467954 45.24058 -165.778886 53.630483 -159.765047 64.282226 C -156.007475 71.220679 -152.632743 82.412984 -157.591907 86.245767 C -158.930024 87.251658 -161.615831 87.708499 -163.895861 86.604924 C -170.700947 83.3593 -167.736418 74.445855 -168.332551 70.849466 C -169.766392 62.821534 -175.175267 56.099443 -182.177063 51.001015 C -189.143434 45.92142 -197.607557 42.438589 -205.199776 40.935017 C -211.879929 39.606329 -218.500691 39.573892 -224.337809 40.788761 C -230.198742 42.012668 -235.300265 44.53919 -238.988473 48.226193 C -243.155398 52.362342 -242.867748 55.955926 -245.07541 54.723437 C -248.008318 52.34598 -240.115316 44.273285 -238.990764 43.265453 C -236.466748 41.030166 -233.411179 39.058854 -229.910145 37.683917 C -228.731241 37.222628 -227.245539 36.94923 -226.444536 36.290149 Z M -226.444536 36.290149 " stroke="#ffffff" stroke-width="6.93" stroke-opacity="1" stroke-miterlimit="2.613"/><path fill="#1ebed6" d="M 3.882812 17.65625 C 3.855469 19.171875 3.839844 20.6875 3.828125 22.199219 C 3.816406 23.714844 3.800781 25.230469 3.789062 26.746094 C 3.976562 27.070312 4.351562 28.277344 4.554688 28.761719 C 4.820312 29.429688 5.183594 30.082031 5.507812 30.691406 C 7.464844 34.464844 10.96875 37.679688 15.441406 39.691406 C 18.355469 40.949219 23.066406 42.09375 24.703125 40.472656 C 25.132812 40.035156 25.335938 39.152344 24.878906 38.398438 C 23.535156 36.148438 19.761719 37.097656 18.246094 36.890625 C 14.863281 36.394531 12.046875 34.59375 9.921875 32.273438 C 7.804688 29.964844 6.367188 27.167969 5.761719 24.664062 C 5.226562 22.460938 5.238281 20.28125 5.773438 18.363281 C 6.3125 16.4375 7.398438 14.765625 8.96875 13.5625 C 10.730469 12.203125 12.246094 12.308594 11.734375 11.578125 C 10.742188 10.605469 7.304688 13.179688 6.875 13.546875 C 5.921875 14.371094 5.078125 15.371094 4.488281 16.515625 C 4.285156 16.90625 4.164062 17.394531 3.882812 17.65625 " fill-opacity="1" fill-rule="evenodd"/><path fill="#e5007d" d="M 22.472656 28.335938 C 21.730469 28.273438 21 27.847656 20.277344 27.054688 C 19.378906 26.089844 18.933594 24.898438 18.933594 23.472656 C 18.933594 21.0625 20.0625 18.769531 22.316406 16.601562 C 24.960938 14.082031 28.335938 12.820312 32.453125 12.820312 C 33.917969 12.820312 35.25 12.988281 36.453125 13.328125 C 37.152344 12.855469 37.90625 12.378906 38.714844 11.890625 C 39.0625 11.691406 39.394531 11.585938 39.703125 11.585938 C 40.269531 11.585938 40.550781 11.816406 40.550781 12.277344 C 40.550781 12.652344 40.292969 12.957031 39.769531 13.199219 C 39.15625 13.484375 38.660156 13.738281 38.292969 13.957031 C 40.105469 14.8125 41.480469 16.074219 42.398438 17.742188 C 43.101562 18.96875 43.453125 20.132812 43.453125 21.226562 C 43.453125 22.234375 43.078125 23.230469 42.335938 24.203125 C 41.589844 25.183594 40.835938 25.792969 40.066406 26.035156 C 39.191406 26.292969 38.417969 26.4375 37.761719 26.464844 C 37.984375 26.636719 38.171875 26.8125 38.324219 26.988281 C 38.671875 27.40625 38.871094 27.796875 38.914062 28.171875 C 39.046875 29.554688 39.023438 30.703125 38.847656 31.628906 C 38.78125 31.933594 38.839844 32.230469 39.027344 32.515625 C 39.214844 32.796875 39.472656 32.945312 39.800781 32.945312 C 40.257812 32.945312 40.726562 32.625 41.210938 31.988281 C 41.542969 31.574219 41.933594 31.359375 42.390625 31.359375 C 42.722656 31.359375 42.886719 31.496094 42.886719 31.761719 C 42.886719 32.109375 42.601562 32.625 42.027344 33.304688 C 40.914062 34.664062 39.722656 35.835938 38.457031 36.820312 C 36.816406 38.09375 35.4375 38.730469 34.320312 38.730469 C 32.617188 38.730469 31.757812 37.8125 31.757812 35.96875 C 31.757812 34.9375 32.285156 32.78125 33.332031 29.488281 C 33.597656 28.65625 33.730469 28.007812 33.730469 27.550781 C 33.730469 27.152344 33.621094 26.855469 33.398438 26.664062 C 33.207031 26.554688 33.007812 26.414062 32.808594 26.25 C 32.617188 26.089844 32.511719 25.859375 32.511719 25.574219 C 32.511719 24.964844 32.941406 24.578125 33.796875 24.429688 C 35.183594 24.1875 36.164062 23.890625 36.761719 23.539062 C 37.96875 22.816406 38.570312 21.632812 38.570312 19.988281 C 38.570312 18.148438 37.761719 16.738281 36.140625 15.777344 C 34.367188 17.789062 32.484375 21.898438 30.492188 28.101562 C 29.332031 31.695312 27.480469 34.519531 24.941406 36.578125 C 22.730469 38.375 20.476562 39.273438 18.179688 39.273438 C 16.054688 39.273438 14.28125 38.707031 12.859375 37.5625 C 11.4375 36.429688 10.726562 34.960938 10.726562 33.167969 C 10.726562 31.546875 11.21875 30.296875 12.203125 29.421875 C 12.960938 28.746094 13.828125 28.402344 14.789062 28.402344 C 15.511719 28.402344 16.113281 28.644531 16.609375 29.125 C 17.097656 29.609375 17.34375 30.160156 17.34375 30.769531 C 17.34375 31.476562 16.992188 32.066406 16.292969 32.546875 C 15.59375 33.027344 15.234375 33.28125 15.210938 33.304688 C 14.75 33.742188 14.523438 34.261719 14.523438 34.851562 C 14.523438 35.460938 14.777344 35.890625 15.277344 36.132812 C 15.5 36.21875 15.921875 36.296875 16.558594 36.363281 C 19.007812 36.605469 22.195312 32.996094 26.113281 25.546875 C 28.605469 20.808594 31.300781 17.28125 34.1875 14.957031 C 33.3125 14.714844 32.378906 14.59375 31.398438 14.59375 C 28.59375 14.59375 26.09375 15.464844 23.894531 17.210938 C 21.695312 18.949219 20.597656 20.890625 20.597656 23.015625 C 20.597656 23.933594 20.796875 24.613281 21.1875 25.050781 C 21.429688 25.316406 21.839844 25.53125 22.425781 25.707031 C 23.003906 25.882812 23.371094 26.046875 23.519531 26.203125 C 23.828125 26.488281 23.984375 26.851562 23.984375 27.285156 C 23.984375 28.074219 23.480469 28.425781 22.472656 28.335938 " fill-opacity="1" fill-rule="nonzero"/><path fill="#e5007d" d="M 41.347656 33.078125 C 40.871094 32.769531 40.757812 32.40625 41.023438 31.988281 C 41.460938 31.480469 42.367188 30.363281 43.746094 28.632812 C 44.445312 27.605469 45.15625 26.570312 45.878906 25.539062 C 46.6875 24.402344 47.316406 23.777344 47.75 23.667969 C 48.339844 23.515625 48.6875 23.4375 48.796875 23.4375 C 48.996094 23.4375 49.199219 23.570312 49.425781 23.828125 C 50.382812 24.972656 50.863281 25.792969 50.863281 26.300781 C 50.863281 26.890625 50.417969 28.171875 49.519531 30.148438 C 48.6875 31.988281 48.273438 33.171875 48.273438 33.699219 C 48.273438 33.941406 48.375 34.0625 48.566406 34.0625 C 48.808594 34.0625 49.359375 33.609375 50.207031 32.714844 C 51.261719 31.589844 51.984375 31.035156 52.378906 31.035156 C 52.835938 31.035156 53.0625 31.242188 53.0625 31.65625 C 53.0625 31.878906 52.945312 32.195312 52.703125 32.613281 C 52.136719 33.578125 50.902344 34.820312 48.996094 36.332031 C 46.941406 37.980469 45.421875 38.800781 44.433594 38.800781 C 43.777344 38.800781 43.242188 38.535156 42.824219 38.011719 C 42.5 37.59375 42.335938 37.1875 42.335938 36.796875 C 42.335938 35.980469 42.542969 35.074219 42.957031 34.0625 C 43.179688 33.515625 43.933594 31.910156 45.222656 29.257812 C 44.347656 30.351562 43.355469 31.535156 42.234375 32.8125 C 42.042969 32.960938 41.746094 33.050781 41.347656 33.078125 Z M 54.804688 15.949219 C 55.199219 16.230469 55.398438 16.738281 55.398438 17.457031 C 55.398438 18.558594 55.035156 19.511719 54.3125 20.332031 C 53.589844 21.15625 52.714844 21.566406 51.683594 21.566406 C 51.050781 21.566406 50.515625 21.40625 50.082031 21.089844 C 49.640625 20.773438 49.425781 20.230469 49.425781 19.464844 C 49.425781 18.519531 49.773438 17.589844 50.472656 16.671875 C 51.128906 15.820312 51.960938 15.394531 52.96875 15.394531 C 53.667969 15.394531 54.28125 15.578125 54.804688 15.949219 " fill-opacity="1" fill-rule="nonzero"/><path fill="#e5007d" d="M 68.304688 28.636719 C 69.378906 27.664062 70.8125 26.480469 72.601562 25.074219 C 73.109375 24.765625 73.609375 24.457031 74.117188 24.148438 C 74.617188 23.84375 75.054688 23.691406 75.429688 23.691406 C 76.019531 23.691406 76.585938 24.066406 77.136719 24.808594 C 77.21875 24.941406 77.269531 25.105469 77.269531 25.304688 C 77.269531 25.828125 76.75 27.078125 75.726562 29.054688 C 74.277344 31.820312 73.554688 33.46875 73.554688 33.996094 C 73.554688 34.195312 73.632812 34.289062 73.789062 34.289062 C 74.25 34.289062 75.121094 33.765625 76.414062 32.714844 C 76.453125 32.664062 76.695312 32.394531 77.136719 31.886719 C 77.460938 31.519531 77.726562 31.332031 77.925781 31.332031 C 78.050781 31.332031 78.191406 31.414062 78.335938 31.578125 C 78.472656 31.742188 78.546875 31.886719 78.546875 32.019531 C 78.546875 32.238281 78.21875 32.707031 77.5625 33.433594 C 77.039062 34.023438 76.105469 34.886719 74.773438 36.023438 C 73.308594 37.296875 72.300781 38.046875 71.753906 38.277344 C 71.207031 38.507812 70.636719 38.621094 70.046875 38.621094 C 68.777344 38.621094 68.066406 38.125 67.914062 37.140625 C 67.804688 36.421875 68.222656 35.074219 69.160156 33.101562 C 69.753906 31.964844 70.34375 30.824219 70.933594 29.6875 C 71.019531 29.488281 71.066406 29.339844 71.066406 29.222656 C 71.066406 29.097656 71 29.03125 70.867188 29.03125 C 70.535156 29.03125 70.125 29.285156 69.621094 29.785156 C 69.203125 30.203125 68.398438 31.113281 67.191406 32.519531 C 65.8125 34.121094 64.863281 35.292969 64.335938 36.042969 C 63.808594 36.785156 63.152344 37.4375 62.371094 38 C 61.582031 38.558594 60.894531 38.839844 60.300781 38.839844 C 59.511719 38.839844 59.121094 38.433594 59.121094 37.617188 C 59.121094 37.25 59.296875 36.773438 59.644531 36.203125 C 60.171875 35.328125 60.453125 34.847656 60.496094 34.753906 C 61.375 33.222656 62.316406 31.53125 63.320312 29.6875 C 63.386719 29.511719 63.417969 29.367188 63.417969 29.257812 C 63.417969 29.109375 63.351562 29.03125 63.21875 29.03125 C 62.914062 29.03125 62.507812 29.285156 62.007812 29.785156 C 61.59375 30.203125 60.785156 31.113281 59.578125 32.519531 C 58.199219 34.121094 57.246094 35.292969 56.722656 36.042969 C 56.199219 36.785156 55.542969 37.4375 54.757812 38 C 53.96875 38.558594 53.28125 38.839844 52.691406 38.839844 C 51.902344 38.839844 51.507812 38.433594 51.507812 37.617188 C 51.507812 37.25 51.683594 36.773438 52.035156 36.203125 C 52.578125 35.304688 52.867188 34.820312 52.882812 34.753906 C 53.28125 33.945312 54.277344 31.984375 55.871094 28.867188 C 54.777344 30.117188 53.5 31.535156 52.035156 33.136719 C 51.859375 33.292969 51.671875 33.371094 51.472656 33.371094 C 51.125 33.371094 50.949219 33.203125 50.949219 32.878906 C 50.949219 32.726562 51.015625 32.558594 51.148438 32.382812 C 52.304688 31.003906 53.738281 29.21875 55.445312 27.023438 C 57.042969 24.523438 58.132812 23.339844 58.722656 23.472656 C 59.121094 23.558594 59.519531 23.8125 59.921875 24.230469 C 60.328125 24.644531 60.574219 25.050781 60.664062 25.449219 C 60.863281 26.300781 60.863281 27.066406 60.664062 27.75 C 60.554688 28.140625 60.144531 28.855469 59.445312 29.882812 C 60.210938 29.140625 60.921875 28.46875 61.582031 27.875 C 63.136719 26.445312 64.273438 25.515625 64.992188 25.074219 C 65.496094 24.765625 65.996094 24.457031 66.503906 24.148438 C 67.003906 23.84375 67.445312 23.691406 67.816406 23.691406 C 68.410156 23.691406 68.976562 24.066406 69.523438 24.8125 C 69.609375 24.941406 69.65625 25.109375 69.65625 25.304688 C 69.65625 25.851562 69.203125 26.964844 68.304688 28.636719 " fill-opacity="1" fill-rule="nonzero"/><path fill="#e5007d" d="M 87.296875 31.921875 C 87.363281 31.8125 88.488281 30.578125 90.679688 28.207031 C 91.179688 27.660156 91.996094 26.535156 93.136719 24.839844 C 94.277344 23.140625 95.191406 21.65625 95.890625 20.382812 C 96.398438 19.355469 96.898438 18.335938 97.402344 17.324219 C 98.234375 15.75 98.890625 14.957031 99.367188 14.957031 C 100.160156 14.957031 100.894531 16.085938 101.570312 18.347656 C 101.59375 18.414062 101.605469 18.496094 101.605469 18.605469 C 101.605469 19.089844 101.164062 20.152344 100.289062 21.792969 C 99.019531 24.203125 98.144531 25.960938 97.664062 27.054688 C 101.082031 24.863281 103.472656 23.761719 104.851562 23.761719 C 105.3125 23.761719 105.691406 23.925781 106 24.257812 C 106.304688 24.585938 106.457031 24.988281 106.457031 25.472656 C 106.457031 25.804688 106.394531 26.171875 106.261719 26.589844 C 106.105469 27.074219 105.070312 29.058594 103.148438 32.546875 C 102.992188 32.835938 102.914062 33.082031 102.914062 33.304688 C 102.914062 33.65625 103.148438 33.832031 103.605469 33.832031 C 103.996094 33.832031 104.316406 33.730469 104.558594 33.535156 C 105.257812 32.960938 105.878906 32.339844 106.425781 31.65625 C 106.800781 31.199219 107.113281 30.96875 107.378906 30.96875 C 107.8125 30.96875 108.035156 31.179688 108.035156 31.597656 C 108.035156 31.746094 107.945312 31.945312 107.769531 32.1875 C 107.59375 32.429688 107.5 32.582031 107.476562 32.648438 C 107.433594 32.863281 106.316406 33.953125 104.128906 35.910156 C 103.339844 36.609375 102.453125 37.257812 101.472656 37.847656 C 100.398438 38.507812 99.609375 38.839844 99.109375 38.839844 C 99 38.839844 98.898438 38.8125 98.8125 38.773438 C 97.542969 38.070312 96.910156 37.324219 96.910156 36.53125 C 96.910156 35.988281 97.164062 35.128906 97.664062 33.964844 C 98.300781 32.539062 98.617188 31.496094 98.617188 30.835938 C 98.617188 30.535156 98.519531 30.375 98.320312 30.375 C 97.886719 30.375 96.953125 31.308594 95.53125 33.171875 C 93.847656 35.382812 92.492188 36.886719 91.460938 37.671875 C 91.394531 37.722656 90.804688 38.015625 89.691406 38.558594 C 89.515625 38.652344 89.351562 38.691406 89.203125 38.691406 C 88.695312 38.691406 88.304688 38.300781 88.019531 37.507812 C 87.90625 37.226562 88.574219 35.746094 90.019531 33.070312 C 92.050781 29.324219 93.191406 27.199219 93.433594 26.691406 C 93.015625 27.394531 92.078125 28.644531 90.613281 30.441406 C 89.363281 31.953125 88.585938 32.863281 88.277344 33.171875 C 88.148438 33.304688 88.019531 33.371094 87.886719 33.371094 C 87.539062 33.371094 87.296875 33.214844 87.164062 32.90625 C 87.03125 32.582031 87.074219 32.25 87.296875 31.921875 " fill-opacity="1" fill-rule="nonzero"/><path fill="#e5007d" d="M 106.347656 33.078125 C 105.871094 32.769531 105.757812 32.40625 106.023438 31.988281 C 106.460938 31.480469 107.367188 30.363281 108.746094 28.632812 C 109.445312 27.605469 110.15625 26.570312 110.878906 25.539062 C 111.6875 24.402344 112.3125 23.777344 112.75 23.667969 C 113.339844 23.515625 113.6875 23.4375 113.796875 23.4375 C 113.996094 23.4375 114.199219 23.570312 114.421875 23.828125 C 115.382812 24.972656 115.863281 25.792969 115.863281 26.300781 C 115.863281 26.890625 115.417969 28.171875 114.519531 30.148438 C 113.6875 31.988281 113.273438 33.171875 113.273438 33.699219 C 113.273438 33.941406 113.375 34.0625 113.566406 34.0625 C 113.808594 34.0625 114.359375 33.609375 115.207031 32.714844 C 116.261719 31.589844 116.984375 31.035156 117.375 31.035156 C 117.835938 31.035156 118.0625 31.242188 118.0625 31.65625 C 118.0625 31.878906 117.945312 32.195312 117.703125 32.613281 C 117.136719 33.578125 115.898438 34.820312 113.996094 36.332031 C 111.941406 37.980469 110.421875 38.800781 109.433594 38.800781 C 108.777344 38.800781 108.238281 38.535156 107.824219 38.011719 C 107.5 37.59375 107.335938 37.1875 107.335938 36.796875 C 107.335938 35.980469 107.542969 35.074219 107.957031 34.0625 C 108.179688 33.515625 108.933594 31.910156 110.222656 29.257812 C 109.347656 30.351562 108.355469 31.535156 107.234375 32.8125 C 107.039062 32.960938 106.746094 33.050781 106.347656 33.078125 Z M 119.804688 15.949219 C 120.199219 16.230469 120.394531 16.738281 120.394531 17.457031 C 120.394531 18.558594 120.035156 19.511719 119.3125 20.332031 C 118.589844 21.15625 117.714844 21.566406 116.683594 21.566406 C 116.050781 21.566406 115.515625 21.40625 115.082031 21.089844 C 114.640625 20.773438 114.421875 20.230469 114.421875 19.464844 C 114.421875 18.519531 114.773438 17.589844 115.472656 16.671875 C 116.128906 15.820312 116.960938 15.394531 117.96875 15.394531 C 118.667969 15.394531 119.28125 15.578125 119.804688 15.949219 " fill-opacity="1" fill-rule="nonzero"/><path fill="#e5007d" d="M 133.304688 28.636719 C 134.378906 27.664062 135.8125 26.480469 137.601562 25.074219 C 138.109375 24.765625 138.609375 24.457031 139.117188 24.148438 C 139.617188 23.84375 140.054688 23.691406 140.429688 23.691406 C 141.019531 23.691406 141.585938 24.066406 142.136719 24.808594 C 142.21875 24.941406 142.269531 25.105469 142.269531 25.304688 C 142.269531 25.828125 141.75 27.078125 140.726562 29.054688 C 139.277344 31.820312 138.554688 33.46875 138.554688 33.996094 C 138.554688 34.195312 138.632812 34.289062 138.789062 34.289062 C 139.25 34.289062 140.121094 33.765625 141.410156 32.714844 C 141.453125 32.664062 141.695312 32.394531 142.136719 31.886719 C 142.460938 31.519531 142.726562 31.332031 142.925781 31.332031 C 143.050781 31.332031 143.191406 31.414062 143.335938 31.578125 C 143.472656 31.742188 143.546875 31.886719 143.546875 32.019531 C 143.546875 32.238281 143.21875 32.707031 142.5625 33.433594 C 142.039062 34.023438 141.105469 34.886719 139.773438 36.023438 C 138.308594 37.296875 137.300781 38.046875 136.753906 38.277344 C 136.203125 38.507812 135.636719 38.621094 135.046875 38.621094 C 133.777344 38.621094 133.066406 38.125 132.914062 37.140625 C 132.804688 36.421875 133.222656 35.074219 134.160156 33.101562 C 134.753906 31.964844 135.34375 30.824219 135.933594 29.6875 C 136.019531 29.488281 136.066406 29.339844 136.066406 29.222656 C 136.066406 29.097656 136 29.03125 135.867188 29.03125 C 135.535156 29.03125 135.125 29.285156 134.621094 29.785156 C 134.203125 30.203125 133.394531 31.113281 132.191406 32.519531 C 130.8125 34.121094 129.863281 35.292969 129.335938 36.042969 C 128.808594 36.785156 128.152344 37.4375 127.371094 38 C 126.578125 38.558594 125.894531 38.839844 125.300781 38.839844 C 124.511719 38.839844 124.121094 38.433594 124.121094 37.617188 C 124.121094 37.25 124.296875 36.773438 124.644531 36.203125 C 125.167969 35.328125 125.453125 34.847656 125.496094 34.753906 C 126.375 33.222656 127.316406 31.53125 128.320312 29.6875 C 128.386719 29.511719 128.417969 29.367188 128.417969 29.257812 C 128.417969 29.109375 128.351562 29.03125 128.21875 29.03125 C 127.910156 29.03125 127.507812 29.285156 127.007812 29.785156 C 126.59375 30.203125 125.785156 31.113281 124.578125 32.519531 C 123.199219 34.121094 122.246094 35.292969 121.722656 36.042969 C 121.199219 36.785156 120.539062 37.4375 119.757812 38 C 118.96875 38.558594 118.28125 38.839844 117.691406 38.839844 C 116.902344 38.839844 116.507812 38.433594 116.507812 37.617188 C 116.507812 37.25 116.683594 36.773438 117.035156 36.203125 C 117.574219 35.304688 117.863281 34.820312 117.882812 34.753906 C 118.28125 33.945312 119.273438 31.984375 120.871094 28.867188 C 119.777344 30.117188 118.496094 31.535156 117.035156 33.136719 C 116.859375 33.292969 116.671875 33.371094 116.472656 33.371094 C 116.125 33.371094 115.949219 33.203125 115.949219 32.878906 C 115.949219 32.726562 116.015625 32.558594 116.148438 32.382812 C 117.304688 31.003906 118.738281 29.21875 120.445312 27.023438 C 122.042969 24.523438 123.132812 23.339844 123.722656 23.472656 C 124.121094 23.558594 124.519531 23.8125 124.921875 24.230469 C 125.328125 24.644531 125.574219 25.050781 125.664062 25.449219 C 125.863281 26.300781 125.863281 27.066406 125.664062 27.75 C 125.554688 28.140625 125.144531 28.855469 124.445312 29.882812 C 125.210938 29.140625 125.921875 28.46875 126.578125 27.875 C 128.136719 26.445312 129.273438 25.515625 129.992188 25.074219 C 130.496094 24.765625 130.996094 24.457031 131.503906 24.148438 C 132.003906 23.84375 132.445312 23.691406 132.816406 23.691406 C 133.410156 23.691406 133.976562 24.066406 134.523438 24.8125 C 134.609375 24.941406 134.65625 25.109375 134.65625 25.304688 C 134.65625 25.851562 134.203125 26.964844 133.304688 28.636719 " fill-opacity="1" fill-rule="nonzero"/><path fill="#009ee3" d="M 91.21875 15.949219 C 91.617188 16.230469 91.8125 16.738281 91.8125 17.457031 C 91.8125 18.558594 91.457031 19.511719 90.746094 20.332031 C 90.03125 21.15625 89.152344 21.566406 88.105469 21.566406 C 87.472656 21.566406 86.933594 21.40625 86.496094 21.089844 C 86.0625 20.773438 85.839844 20.230469 85.839844 19.464844 C 85.839844 18.546875 86.1875 17.617188 86.886719 16.671875 C 87.542969 15.820312 88.375 15.394531 89.382812 15.394531 C 90.082031 15.394531 90.695312 15.578125 91.21875 15.949219 Z M 76.585938 38.457031 C 78.535156 34.738281 80.171875 31.523438 81.511719 28.832031 C 79.867188 31.15625 78.828125 32.480469 78.390625 32.8125 C 78.171875 32.984375 77.875 33.078125 77.503906 33.078125 C 76.980469 32.769531 76.859375 32.40625 77.140625 31.988281 C 77.582031 31.480469 78.492188 30.363281 79.867188 28.636719 C 80.589844 27.605469 81.300781 26.570312 82 25.546875 C 82.8125 24.402344 83.433594 23.78125 83.875 23.671875 C 84.464844 23.515625 84.820312 23.449219 84.953125 23.472656 C 85.152344 23.472656 85.351562 23.59375 85.542969 23.835938 C 86.507812 24.976562 86.988281 25.800781 86.988281 26.300781 C 86.988281 26.933594 86.539062 28.222656 85.644531 30.148438 C 84.921875 31.773438 84.089844 33.589844 83.152344 35.605469 C 83.214844 35.566406 84.277344 34.597656 86.332031 32.714844 C 86.75 32.316406 87.152344 31.921875 87.542969 31.53125 C 87.941406 31.199219 88.265625 31.035156 88.53125 31.035156 C 88.964844 31.035156 89.1875 31.242188 89.1875 31.65625 C 89.1875 31.878906 89.0625 32.207031 88.808594 32.648438 C 88.554688 33.082031 87.730469 33.945312 86.332031 35.238281 C 84.628906 36.839844 83.152344 37.914062 81.902344 38.457031 C 80.804688 41.242188 78.75 44.140625 75.730469 47.167969 C 74.839844 48.066406 73.394531 48.511719 71.402344 48.511719 C 69.542969 48.511719 68.382812 48.085938 67.921875 47.234375 C 67.503906 46.492188 67.300781 45.777344 67.300781 45.09375 C 67.300781 43.976562 67.878906 42.96875 69.042969 42.074219 C 69.648438 41.609375 70.703125 41.023438 72.207031 40.316406 C 73.707031 39.605469 75.164062 38.984375 76.585938 38.457031 Z M 74.910156 41.621094 C 74.039062 42.039062 73.21875 42.5 72.453125 43.003906 C 72.144531 43.222656 71.839844 43.542969 71.53125 43.960938 C 71.230469 44.441406 71.074219 44.867188 71.074219 45.238281 C 71.074219 45.832031 71.378906 46.128906 71.996094 46.128906 C 72.410156 46.128906 72.832031 45.742188 73.273438 44.972656 C 73.710938 44.097656 74.144531 43.234375 74.585938 42.378906 C 74.652344 42.226562 74.761719 41.972656 74.910156 41.621094 " fill-opacity="1" fill-rule="nonzero"/><path stroke-linecap="butt" transform="matrix(0.127088, 0.00105606, 0.0011555, -0.116082, -12.303073, 92.094212)" fill="none" stroke-linejoin="miter" d="M 528.449419 665.006816 C 532.044238 661.775392 533.816127 656.205478 533.824717 648.49952 C 533.870325 636.722152 530.581058 626.630636 524.04912 618.22581 C 517.517181 609.820985 509.530484 605.912133 500.242392 606.534301 C 494.521585 606.953366 489.646034 609.062662 485.677818 612.795452 C 481.710214 616.460945 479.811718 622.433518 479.798845 630.610547 C 479.768228 640.739162 482.907495 650.425504 489.184996 659.770238 C 495.222743 668.439774 502.685127 672.54576 511.849365 672.023418 C 518.092038 671.676402 523.707958 669.270984 528.449419 665.006816 Z M 528.449419 665.006816 " stroke="#ffffff" stroke-width="27.719" stroke-opacity="1" stroke-miterlimit="2.613"/><path fill="#1ebed6" d="M 55.628906 15.457031 C 56.078125 15.835938 56.296875 16.484375 56.289062 17.378906 C 56.28125 18.746094 55.851562 19.914062 55.011719 20.882812 C 54.171875 21.847656 53.152344 22.296875 51.972656 22.210938 C 51.246094 22.160156 50.632812 21.910156 50.128906 21.472656 C 49.628906 21.042969 49.394531 20.347656 49.402344 19.398438 C 49.410156 18.222656 49.824219 17.101562 50.632812 16.023438 C 51.40625 15.023438 52.363281 14.554688 53.523438 14.625 C 54.316406 14.671875 55.027344 14.957031 55.628906 15.457031 " fill-opacity="1" fill-rule="nonzero"/><path stroke-linecap="butt" transform="matrix(0.127088, 0.000677711, 0.0011555, -0.0744255, -12.303073, 92.094212)" fill="none" stroke-linejoin="miter" d="M 1041.062482 1024.552441 C 1044.657687 1021.278602 1046.398636 1015.731009 1046.438045 1008.016023 C 1046.452727 996.259441 1043.194337 986.152586 1036.662397 977.747938 C 1030.099722 969.34301 1022.112982 965.438854 1012.824635 966.08907 C 1007.104295 966.456864 1002.259494 968.564647 998.260453 972.307176 C 994.292623 975.997504 992.394187 981.963546 992.381217 990.151141 C 992.350593 1000.280532 995.520599 1009.9667 1001.798078 1019.313767 C 1007.836366 1027.923861 1015.298242 1032.085664 1024.462699 1031.539291 C 1030.705517 1031.176254 1036.321054 1028.813063 1041.062482 1024.552441 Z M 1041.062482 1024.552441 " stroke="#ffffff" stroke-width="27.719" stroke-opacity="1" stroke-miterlimit="2.613"/><path fill="#1ebed6" d="M 121.1875 16.546875 C 121.640625 16.792969 121.855469 17.207031 121.851562 17.78125 C 121.839844 18.65625 121.414062 19.40625 120.574219 20.027344 C 119.734375 20.648438 118.714844 20.933594 117.535156 20.878906 C 116.804688 20.847656 116.191406 20.6875 115.691406 20.40625 C 115.1875 20.128906 114.957031 19.683594 114.960938 19.074219 C 114.972656 18.320312 115.382812 17.601562 116.191406 16.910156 C 116.96875 16.273438 117.921875 15.96875 119.085938 16.015625 C 119.878906 16.046875 120.589844 16.226562 121.1875 16.546875 " fill-opacity="1" fill-rule="nonzero"/></svg>